PathFileType	4	(X/Y/Z)	D:\TRACE\v60_Jaco2_6-2-23\BothDRS_Motion2_6-platform.trc
DataRate	CameraRate	NumFrames	NumMarkers	Units	OrigDataRate	OrigDataStartFrame	OrigNumFrames
100.00	100.00	      31	5	mm	100.00	1	      7500
Frame#	Time	Left_Front			Right_Front			Left_Aft			Right_Aft			Post			
		X1	Y1	Z1	X2	Y2	Z2	X3	Y3	Z3	X4	Y4	Z4	X5	Y5	Z5	

1	0.000	-800.76349	9.07158	-638.75427	769.08276	10.23088	-644.57336	-708.58978	7.71896	496.18591	733.45898	6.99105	505.29468	-14.58409	1307.99744	-962.23627	
2	0.010	-800.79980	8.99826	-638.74304	769.07983	10.26313	-644.56476	-708.63861	7.75039	496.20950	733.45374	6.96152	505.30215	-14.58243	1308.01843	-962.18433	
3	0.020	-800.80457	8.99962	-638.74060	769.03015	10.25337	-644.53345	-708.63055	7.70466	496.18365	733.42712	6.96365	505.30310	-14.62145	1308.00977	-962.20166	
4	0.030	-800.79907	9.01257	-638.78577	769.03668	10.27165	-644.58307	-708.62506	7.74147	496.21222	733.45386	6.97902	505.29517	-14.62686	1308.01392	-962.20184	
5	0.040	-800.78876	9.04353	-638.78564	769.09314	10.23725	-644.56653	-708.62219	7.72957	496.14291	733.45251	6.98834	505.28845	-14.60960	1308.02148	-962.21906	
6	0.050	-800.76184	8.98033	-638.86182	769.05341	10.23855	-644.57391	-708.60785	7.75464	496.22549	733.49377	6.99347	505.30084	-14.57257	1307.99365	-962.19812	
7	0.060	-800.78412	9.00015	-638.78864	769.03320	10.23211	-644.59534	-708.55542	7.71784	496.17270	733.48926	6.99650	505.29483	-14.58815	1308.01367	-962.22668	
8	0.070	-800.78461	8.92807	-638.72162	769.09528	10.22047	-644.58167	-708.57745	7.70976	496.22031	733.44073	6.96934	505.31772	-14.61261	1308.00208	-962.20276	
9	0.080	-800.82373	8.93087	-638.79431	769.07837	10.25443	-644.57953	-708.62183	7.73397	496.20624	733.45795	6.97610	505.30649	-14.56948	1307.98474	-962.23431	
10	0.090	-800.76935	8.94222	-638.81299	769.07239	10.23825	-644.57788	-708.63135	7.74277	496.20731	733.44672	6.99970	505.28021	-14.57866	1308.01526	-962.22009	
11	0.100	-800.79266	9.06638	-638.75873	769.08917	10.23397	-644.59778	-708.62201	7.72075	496.18851	733.46826	7.00977	505.28760	-14.58160	1307.99414	-962.24255	
12	0.110	-800.76709	8.95385	-638.75037	769.05536	10.24585	-644.60645	-708.61163	7.72008	496.22433	733.46564	6.99740	505.28397	-14.58119	1308.00732	-962.23206	
13	0.120	-800.82233	8.95825	-638.80090	769.05859	10.22428	-644.55731	-708.56549	7.67330	496.21640	733.44263	6.96309	505.30185	-14.50535	1307.99475	-962.22382	
14	0.130	-800.81970	8.90118	-638.81372	769.00842	10.21869	-644.57355	-708.60962	7.68377	496.22852	733.45746	6.96952	505.31393	-14.54671	1307.97559	-962.22583	
15	0.140	-800.82349	8.94589	-638.73419	769.04938	10.19904	-644.57635	-708.59161	7.70496	496.22113	733.46631	6.97165	505.29929	-14.58203	1307.99353	-962.20032	
16	0.150	-800.78418	9.03778	-638.83777	769.06866	10.23460	-644.59198	-708.56281	7.71312	496.20349	733.47375	6.98063	505.28912	-14.55413	1307.98938	-962.21942	
17	0.160	-800.77490	9.04150	-638.78522	769.09705	10.24047	-644.54352	-708.59570	7.74554	496.16049	733.48883	6.97881	505.29538	-14.52310	1308.00391	-962.20361	
18	0.170	-800.79370	9.00993	-638.79889	769.05414	10.24121	-644.59351	-708.62384	7.75244	496.18250	733.44958	6.97982	505.29034	-14.55384	1308.00024	-962.21429	
19	0.180	-800.83984	9.02667	-638.72028	769.05035	10.24281	-644.56976	-708.59033	7.68858	496.21423	733.44684	6.97591	505.29636	-14.61179	1307.97327	-962.23596	
20	0.190	-800.83185	8.93313	-638.82318	769.02130	10.24351	-644.58746	-708.61487	7.72693	496.23862	733.45068	6.96396	505.30243	-14.58190	1307.98193	-962.24884	
21	0.200	-800.77252	8.95509	-638.84607	769.05408	10.24954	-644.58002	-708.55737	7.70658	496.19269	733.49854	6.98807	505.28943	-14.55888	1308.01794	-962.21289	
22	0.210	-800.73260	8.99269	-638.75977	769.02875	10.21847	-644.61072	-708.53473	7.69059	496.20923	733.51532	6.99763	505.30191	-14.56988	1308.00854	-962.18628	
23	0.220	-800.78119	8.99928	-638.73657	769.11096	10.27045	-644.52856	-708.58099	7.68213	496.16528	733.48199	6.99031	505.30280	-14.61679	1308.02246	-962.19312	
24	0.230	-800.82574	8.98147	-638.76843	769.04871	10.23909	-644.56470	-708.58868	7.70546	496.19925	733.45782	6.97221	505.29797	-14.57273	1308.02271	-962.20941	
25	0.240	-800.80743	8.96805	-638.70135	769.06512	10.22256	-644.56641	-708.62402	7.72124	496.17798	733.46497	6.99044	505.29605	-14.58655	1308.00122	-962.25159	
26	0.250	-800.82660	9.00638	-638.71313	769.03473	10.24048	-644.55511	-708.60608	7.71500	496.21390	733.47186	6.99161	505.29233	-14.58980	1308.01001	-962.25031	
27	0.260	-800.78424	9.03927	-638.77240	769.10632	10.26712	-644.57758	-708.56506	7.74633	496.19406	733.49158	6.98624	505.29407	-14.54311	1308.01709	-962.20819	
28	0.270	-800.76965	8.97966	-638.74652	769.07861	10.26067	-644.58307	-708.54376	7.67965	496.20926	733.48932	6.98138	505.29489	-14.52465	1307.98218	-962.22101	
29	0.280	-800.80811	8.91953	-638.79797	768.99597	10.24822	-644.58673	-708.54889	7.69453	496.21118	733.45905	6.97325	505.29187	-14.55231	1307.98608	-962.17889	
30	0.290	-800.83435	8.97415	-638.65912	769.00720	10.22443	-644.57520	-708.54736	7.66228	496.23950	733.46252	6.96391	505.30679	-14.52484	1307.98364	-962.22498	
31	0.300	-800.78387	8.91017	-638.79871	769.01276	10.23872	-644.57043	-708.61328	7.72300	496.19879	733.42719	6.95749	505.29123	-14.56098	1307.98401	-962.20288	
